<svg id="Layer_1" data-name="Layer 1" xmlns="http://www.w3.org/2000/svg" xmlns:xlink="http://www.w3.org/1999/xlink" viewBox="0 0 298.77 119"><defs><style>.cls-1{stroke:#0093e7;stroke-width:1px;fill:url(#linear-gradient);}.cls-1,.cls-10,.cls-11,.cls-12,.cls-14,.cls-15,.cls-16,.cls-2,.cls-3,.cls-4,.cls-5,.cls-6,.cls-7,.cls-8,.cls-9{stroke-miterlimit:10;}.cls-2{stroke-width:1.08px;fill:url(#linear-gradient-2);stroke:url(#linear-gradient-3);}.cls-3{stroke:#c2c2c2;fill:url(#linear-gradient-4);}.cls-15,.cls-4{stroke:#a3a3a3;}.cls-4{fill:url(#linear-gradient-5);}.cls-5{fill:#404040;}.cls-10,.cls-11,.cls-5,.cls-9{stroke:#000;}.cls-10,.cls-11,.cls-5,.cls-6,.cls-7,.cls-8,.cls-9{stroke-width:0.26px;}.cls-6,.cls-7,.cls-8{stroke:#00c3ff;}.cls-6{fill:url(#linear-gradient-6);}.cls-7{fill:url(#linear-gradient-7);}.cls-8{fill:url(#linear-gradient-8);}.cls-9{fill:#000040;}.cls-10{fill:#484848;}.cls-11{fill:none;}.cls-12,.cls-14{stroke-width:0.11px;}.cls-12{fill:url(#linear-gradient-9);stroke:url(#linear-gradient-10);}.cls-13{fill:#002845;}.cls-14{fill:url(#linear-gradient-11);stroke:url(#linear-gradient-12);}.cls-15,.cls-16{stroke-width:1.29px;}.cls-15{opacity:0.53;fill:url(#linear-gradient-13);}.cls-16{fill:#20a200;stroke:#07a200;}</style><linearGradient id="linear-gradient" x1="150.27" y1="85.94" x2="150.27" y2="118.5" gradientUnits="userSpaceOnUse"><stop offset="0" stop-color="blue"/><stop offset="0.1" stop-color="#0012ff"/><stop offset="0.31" stop-color="#0042ff"/><stop offset="0.61" stop-color="#0090ff"/><stop offset="0.98" stop-color="#00f9ff"/><stop offset="1" stop-color="aqua"/></linearGradient><linearGradient id="linear-gradient-2" x1="150.34" y1="98.86" x2="150.34" y2="115.87" gradientUnits="userSpaceOnUse"><stop offset="0" stop-color="blue"/><stop offset="0.2" stop-color="#0003ff"/><stop offset="0.33" stop-color="#000cff"/><stop offset="0.45" stop-color="#001bff"/><stop offset="0.55" stop-color="#0031ff"/><stop offset="0.65" stop-color="#004dff"/><stop offset="0.74" stop-color="#006fff"/><stop offset="0.83" stop-color="#0098ff"/><stop offset="0.91" stop-color="#00c7ff"/><stop offset="0.99" stop-color="#00fbff"/><stop offset="1" stop-color="aqua"/></linearGradient><linearGradient id="linear-gradient-3" x1="150.33" y1="98.32" x2="150.33" y2="116.46" xlink:href="#linear-gradient-2"/><linearGradient id="linear-gradient-4" x1="159.55" y1="65.19" x2="239.09" y2="202.96" gradientUnits="userSpaceOnUse"><stop offset="0" stop-color="#1a1a1a"/><stop offset="0.41" stop-color="#2c2c2c"/><stop offset="1" stop-color="#4d4d4d"/></linearGradient><linearGradient id="linear-gradient-5" x1="124.11" y1="54.74" x2="274.51" y2="205.14" gradientUnits="userSpaceOnUse"><stop offset="0" stop-color="#333"/><stop offset="0.27" stop-color="#3b3b3b"/><stop offset="0.68" stop-color="#515151"/><stop offset="1" stop-color="#666"/></linearGradient><linearGradient id="linear-gradient-6" x1="83.93" y1="101.49" x2="115.7" y2="133.26" gradientUnits="userSpaceOnUse"><stop offset="0" stop-color="#000f30"/><stop offset="0.05" stop-color="#000c25"/><stop offset="0.16" stop-color="#000614"/><stop offset="0.29" stop-color="#000309"/><stop offset="0.48" stop-color="#000102"/><stop offset="1"/></linearGradient><linearGradient id="linear-gradient-7" x1="267.42" y1="89.28" x2="327.28" y2="149.14" xlink:href="#linear-gradient-6"/><linearGradient id="linear-gradient-8" x1="151.87" y1="96.36" x2="246.74" y2="191.22" xlink:href="#linear-gradient-6"/><linearGradient id="linear-gradient-9" x1="173.25" y1="97.62" x2="185.01" y2="97.62" gradientUnits="userSpaceOnUse"><stop offset="0" stop-color="lime"/><stop offset="0.04" stop-color="#00d600"/><stop offset="0.1" stop-color="#0a0"/><stop offset="0.16" stop-color="#008100"/><stop offset="0.23" stop-color="#005e00"/><stop offset="0.3" stop-color="#004100"/><stop offset="0.38" stop-color="#002900"/><stop offset="0.46" stop-color="#001700"/><stop offset="0.57" stop-color="#000a00"/><stop offset="0.71" stop-color="#000200"/><stop offset="1"/></linearGradient><linearGradient id="linear-gradient-10" x1="173.19" y1="97.62" x2="185.06" y2="97.62" xlink:href="#linear-gradient-9"/><linearGradient id="linear-gradient-11" x1="206.07" y1="98.65" x2="217.83" y2="98.65" xlink:href="#linear-gradient-9"/><linearGradient id="linear-gradient-12" x1="206.01" y1="98.65" x2="217.88" y2="98.65" xlink:href="#linear-gradient-9"/><linearGradient id="linear-gradient-13" x1="172.97" y1="79.26" x2="221.25" y2="127.54" xlink:href="#linear-gradient-6"/></defs><title>Alien 3</title><ellipse class="cls-1" cx="150.27" cy="102.22" rx="39.41" ry="16.28"/><polygon class="cls-2" points="112.33 98.86 188.35 98.86 150.44 115.87 112.33 98.86"/><path class="cls-3" d="M51.66,127.47s-3.62,7-.26,9.11S88.61,149.5,88.61,149.5s99,30.75,226.12,0l28.69-7s5.94-1,3.89-11.5" transform="translate(-49.47 -65.5)"/><path class="cls-4" d="M145,100.92,176.22,72s18.87-13.44,42.64,0l30,28.94,78.82,20.93s30.49,6.72,15.51,13.44-148.08,46-284-1.29c0,0-24.55-6.46,13.59-15.27.37-.09,5.41-1.43,5.79-1.53Z" transform="translate(-49.47 -65.5)"/><path class="cls-5" d="M303,139.16" transform="translate(-49.47 -65.5)"/><path class="cls-6" d="M143.66,105.31l-78,19.38s-20.42,4.91,0,8.79l24.31,6.94c.69.17,1-1.09.31-1.32l-22.56-8.72s-8.79-2.33.78-4.39S143.66,105.31,143.66,105.31Z" transform="translate(-49.47 -65.5)"/><path class="cls-7" d="M251.13,105.57l82.7,22s20.42,5.69,0,9.56l-24.31,6.68c-.69.17-1-1.61-.31-1.84l22.56-8.72s8.79-2.33-.78-4.39S251.13,105.57,251.13,105.57Z" transform="translate(-49.47 -65.5)"/><path class="cls-8" d="M107.37,143.5c15,3.77,90.49,20.5,183.8,3a1.23,1.23,0,0,0,.41-2.26L276,134.77h0a1.46,1.46,0,0,0-.18,2.29l7.93,7.27-78.82,6.72-1.52-17.4c0-1.39-.89-2-2.28-2h0c-1.35,0-2.72.28-2.79,1.63l-2.2,17.75-80.63-8.79,7.93-8.6a1.92,1.92,0,0,0-.18-2.78h0L107,141.27A1.23,1.23,0,0,0,107.37,143.5Z" transform="translate(-49.47 -65.5)"/><polygon class="cls-9" points="98.06 42.39 132.18 54.8 125.72 54.8 94.19 42.39 98.06 42.39"/><path class="cls-10" d="M143.66,159.94l6.2,8.17s44.71,10.08,94.58,0l6.5-7.73S199.48,167.27,143.66,159.94Z" transform="translate(-49.47 -65.5)"/><polygon class="cls-9" points="199.62 42.39 165.51 54.8 171.97 54.8 203.5 42.39 199.62 42.39"/><line class="cls-11" x1="104.52" y1="96.4" x2="107.62" y2="103.12"/><line class="cls-11" x1="116.93" y1="97.44" x2="119.51" y2="104.67"/><line class="cls-11" x1="128.56" y1="98.21" x2="130.62" y2="105.71"/><line class="cls-11" x1="140.19" y1="98.47" x2="141.22" y2="106.22"/><path class="cls-11" d="M239,167.85" transform="translate(-49.47 -65.5)"/><path class="cls-11" d="M240.83,163.2" transform="translate(-49.47 -65.5)"/><line class="cls-11" x1="182.83" y1="97.18" x2="180.24" y2="104.42"/><line class="cls-11" x1="171.46" y1="98.21" x2="169.65" y2="105.45"/><line class="cls-11" x1="160.6" y1="98.47" x2="159.31" y2="106.22"/><line class="cls-11" x1="191.87" y1="96.4" x2="188.51" y2="103.12"/><line class="cls-11" x1="150.27" y1="98.47" x2="150.27" y2="106.22"/><path class="cls-12" d="M182.57,107.18A28.74,28.74,0,0,0,185,96.36c0-8.48-2.63-15.35-5.88-15.35s-5.88,6.87-5.88,15.35a32.45,32.45,0,0,0,1.83,9.63c.16.51.41,1,.59,1.44h0l0,0c-.23-.57,1.88,3.71,1.91,3.73a7,7,0,0,1,.26,3h2.73a5.64,5.64,0,0,1,0-3,34.34,34.34,0,0,1,1.82-3.74l0,0Z" transform="translate(-49.47 -65.5)"/><path class="cls-13" d="M175.28,104.05c1,1.23,2.24,1.77,2.71,1.2s0-2-1-3.25-2.24-1.77-2.71-1.2S174.26,102.82,175.28,104.05Z" transform="translate(-49.47 -65.5)"/><path class="cls-13" d="M183,104.05c-1,1.23-2.24,1.77-2.71,1.2s0-2,1-3.25,2.24-1.77,2.71-1.2S184,102.82,183,104.05Z" transform="translate(-49.47 -65.5)"/><path class="cls-14" d="M215.39,108.21a28.74,28.74,0,0,0,2.44-10.82c0-8.48-2.63-15.35-5.88-15.35s-5.88,6.87-5.88,15.35a32.45,32.45,0,0,0,1.83,9.63c.16.51.41,1,.59,1.44h0l0,0c-.23-.57,1.88,3.71,1.91,3.73a7,7,0,0,1,.26,3h2.73a5.64,5.64,0,0,1,0-3,34.34,34.34,0,0,1,1.82-3.74l0,0Z" transform="translate(-49.47 -65.5)"/><path class="cls-13" d="M208.1,105.09c1,1.23,2.24,1.77,2.71,1.2s0-2-1-3.25-2.24-1.77-2.71-1.2S207.08,103.86,208.1,105.09Z" transform="translate(-49.47 -65.5)"/><path class="cls-13" d="M215.79,105.09c-1,1.23-2.24,1.77-2.71,1.2s0-2,1-3.25,2.24-1.77,2.71-1.2S216.82,103.86,215.79,105.09Z" transform="translate(-49.47 -65.5)"/><path class="cls-15" d="M215.19,73.47a2.05,2.05,0,0,0-.46-.34c-18.25-10.1-35.15.14-35.15.14l-.12.07a2,2,0,0,0-.38.29l-28.67,28.19a2,2,0,0,0,.61,3.3c49.45,21.84,83.68,5.29,92.4.16a2,2,0,0,0,.4-3.17Z" transform="translate(-49.47 -65.5)"/><path class="cls-16" d="M384,166.3" transform="translate(-49.47 -65.5)"/></svg>