<svg id="Layer_1" data-name="Layer 1" xmlns="http://www.w3.org/2000/svg" viewBox="0 0 66 66.22"><defs><style>.cls-1{fill:#b85100;}.cls-2{fill:#9c5100;}.cls-3{fill:#e75100;}.cls-4{fill:#ffece9;}.cls-5{opacity:0.43;}</style></defs><title>Mars</title><circle class="cls-1" cx="33" cy="33.22" r="33"/><path class="cls-2" d="M51.63,55.65c-8.91,10.72-7.29,21.21-5.43,29.1,1.67,7.1,3.62,7.52,6.27,9.89l26.59.28a12.1,12.1,0,0,1,12.39-5.15c8.35,1.53,9.05-5,9.05-5v-3.9l-9.89-2.09s-5.43,5-6.27-.42S80,75.14,80,75.14s-16.71,22-18.38-3.48l7.52-7.8Z" transform="translate(-43 -41.78)"/><polygon class="cls-2" points="44.84 4.26 38.01 6.34 35.51 6.34 32.3 5.23 32.3 6.34 34.39 7.6 33.84 8.85 26.32 8.85 23.53 12.75 27.29 15.26 35.23 14 37.32 8.43 46.51 5.23 44.84 4.26"/><polygon class="cls-3" points="46.51 6.07 37.87 8.85 36.2 13.86 38.71 9.69 46.51 6.07"/><path class="cls-4" d="M86.37,102.5c-1.11.28-4.46-.7-4.46-.7V100l-3.34,2.51-3.9-.56v-1l-4.46,1-3.9-1v-1h-1l-.7,1.95H63.54L61.73,100H54.45a33,33,0,0,0,36.31,4.53l-1.88-.63S87.49,102.22,86.37,102.5Z" transform="translate(-43 -41.78)"/><path class="cls-4" d="M49.64,55.14l5.68-1.51L54.07,52H58.8l3.9-2.65h9.19V46.8A17,17,0,0,1,73.56,46c.7-.28,2.37-.14,3.06-.42A11.94,11.94,0,0,1,79,45.13l1.95-2.65-.41-.18A33.28,33.28,0,0,0,76,42,33,33,0,0,0,49.64,55.14Z" transform="translate(-43 -41.78)"/><polygon class="cls-3" points="48.46 35.72 61.54 39.2 64.33 39.2 61.41 38.09 48.46 35.72"/><path class="cls-5" d="M70.3,42.27A33,33,0,0,1,63,105.1,33,33,0,1,0,70.3,42.27Z" transform="translate(-43 -41.78)"/></svg>